<svg width="367" height="66" viewBox="0 0 367 66" fill="none" xmlns="http://www.w3.org/2000/svg">
<rect width="31.62" height="31.36" fill="#ED383F"/>
<rect y="34" width="31.62" height="31.36" fill="#F3A843"/>
<rect x="35" width="31.62" height="31.36" fill="#2366AD"/>
<rect x="35" y="34" width="31.62" height="31.36" fill="#CC4594"/>
<path fill-rule="evenodd" clip-rule="evenodd" d="M19.2479 1H30.6198V30.3554H19.2479H12.3719H1V1H12.3719H19.2479ZM12.3719 2.05787H2.05786V29.2975H12.3719V15.81H4.43803L4.43803 8.93392L12.3719 8.93392V2.05787ZM19.2479 29.2975V15.81H26.6529V8.93392L19.2479 8.93392V2.05787H29.562V29.2975H19.2479Z" fill="white"/>
<path fill-rule="evenodd" clip-rule="evenodd" d="M35.91 35H65.5298V64.3554H35.91V35ZM36.9678 36.0578H64.472V43.1472C64.2547 43.0116 64.0023 42.9339 63.733 42.9339C62.9186 42.9339 62.2584 43.6443 62.2584 44.5207C62.2584 44.9724 62.4338 45.38 62.7154 45.669C61.6693 46.5507 60.4949 47.9619 57.9575 51.6612C57.8047 49.7209 57.6063 46.1562 57.7196 43.9439C57.8351 43.9752 57.9559 43.9918 58.0804 43.9918C58.8948 43.9918 59.555 43.2814 59.555 42.405C59.555 41.5287 58.8948 40.8182 58.0804 40.8182C57.266 40.8182 56.6059 41.5287 56.6059 42.405C56.6059 42.8923 56.8099 43.3282 57.1311 43.6193C56.7694 44.3968 56.3565 45.4162 55.9407 46.4429L55.9407 46.4429L55.9407 46.4429L55.9407 46.4429C55.1687 48.3488 54.3866 50.2798 53.9025 50.7356C53.1528 50.1978 51.762 45.4448 50.8814 42.0754C51.4914 41.8809 51.9363 41.2732 51.9363 40.5538C51.9363 39.6774 51.2762 38.967 50.4618 38.967C49.6474 38.967 48.9872 39.6774 48.9872 40.5538C48.9872 41.3383 49.5163 41.9899 50.2115 42.1178C49.6841 45.3975 48.709 49.9814 47.6355 50.6034C47.2302 49.8182 45.4598 45.9814 44.1853 43.2016C44.4204 42.9205 44.5635 42.5485 44.5635 42.1405C44.5635 41.2641 43.9033 40.5537 43.0889 40.5537C42.2745 40.5537 41.6143 41.2641 41.6143 42.1405C41.6143 43.0168 42.2745 43.7273 43.0889 43.7273C43.2162 43.7273 43.3397 43.7099 43.4575 43.6773V51.6612L38.8094 45.8081C39.0261 45.5319 39.1567 45.1749 39.1567 44.7851C39.1567 43.9088 38.4965 43.1984 37.6821 43.1984C37.423 43.1984 37.1795 43.2703 36.9678 43.3966V36.0578ZM36.9678 46.1737V63.2975H64.472V45.8941C64.2547 46.0298 64.0023 46.1075 63.733 46.1075C63.645 46.1075 63.5589 46.0992 63.4752 46.0833C61.6788 49.7796 60.1561 55.7779 59.555 58.6695C52.5753 61.8431 44.9321 59.9918 41.983 58.6695C41.983 57.4993 40.3576 52.6928 39.1004 48.9753L39.1004 48.9753L39.1004 48.9752C38.7577 47.9618 38.4423 47.0293 38.1947 46.2734C38.0351 46.3371 37.8624 46.3719 37.6821 46.3719C37.423 46.3719 37.1795 46.3 36.9678 46.1737Z" fill="white"/>
<path fill-rule="evenodd" clip-rule="evenodd" d="M65.5289 1H35.9091V30.3554H65.5289V1ZM64.4711 2.05787H63.0165C62.5757 2.32233 61.5884 3.6182 61.1652 6.68597C60.6363 10.5207 56.5371 17.7934 53.7603 19.9091V23.876C55.2148 24.4491 58.2033 26.3356 58.5206 29.2975L64.4711 29.2975V2.05787ZM36.9669 2.05787H38.0248C38.6418 2.32233 39.3471 3.51241 39.876 6.68597C40.3803 9.71199 44.7245 16.7796 47.1487 19.9091V23.876C44.1867 24.5108 42.741 27.7548 42.3884 29.2975L36.9669 29.2975V2.05787ZM54.8181 15.0165L57.1983 6.81816C57.8595 4.96689 60.0593 4.83467 59.0495 7.61155C57.9917 10.5206 56.1404 13.9587 54.8181 15.0165Z" fill="white"/>
<path fill-rule="evenodd" clip-rule="evenodd" d="M0.999989 35H30.6198V64.3554H0.999989V35ZM28.219 36.0578H29.562V45.2912C27.6257 47.5135 23.6573 51.1283 20.2507 51.1283C20.3552 47.4431 25.562 39.6076 28.219 36.0578ZM28.1445 36.0578H26.4495L26.1793 37.3117L28.1445 36.0578ZM25.9494 36.0578H24.761C24.8047 36.4014 24.8411 36.7979 24.8619 37.0672L25.9494 36.0578ZM24.1659 36.0578H23.0006L23.5444 37.0672L24.1659 36.0578ZM22.3194 36.0578H2.05784V62.0042C2.27643 60.6159 3.16831 58.5824 5.62676 56.5082C2.78102 53.5738 2.86007 50.8023 3.25531 49.7834C4.17754 48.5607 6.52264 45.9196 8.5252 45.1371C11.0284 44.1589 16.0348 39.1458 15.903 38.2899C15.7713 37.434 17.3523 41.958 13.5316 45.8707C10.4751 49.0008 10.1501 50.3539 10.3697 50.6392C12.785 49.6611 18.2745 45.4061 20.9094 36.2113L21.5682 37.8008L22.3194 36.0578ZM2.072 63.2975H29.562V46.5635C28.5332 50.3246 26.3181 55.6693 21.0412 58.5868C20.9992 58.6101 20.9568 58.6336 20.914 58.6573C19.2121 59.6011 16.8469 60.9128 10.3697 60.0541C6.85894 59.5886 2.19326 61.8284 2.072 63.2975Z" fill="white"/>
<path d="M83.184 9.00799H93.864V11.168H85.488V16.496H93.288V18.656H85.488V26H83.184V9.00799Z" fill="black"/>
<path d="M106.205 26.432C104.909 26.432 103.717 26.208 102.629 25.76C101.541 25.296 100.605 24.664 99.8213 23.864C99.0533 23.064 98.4453 22.12 97.9973 21.032C97.5653 19.944 97.3493 18.768 97.3493 17.504C97.3493 16.24 97.5653 15.064 97.9973 13.976C98.4453 12.888 99.0533 11.944 99.8213 11.144C100.605 10.344 101.541 9.71999 102.629 9.27199C103.717 8.80799 104.909 8.57599 106.205 8.57599C107.501 8.57599 108.693 8.80799 109.781 9.27199C110.869 9.71999 111.797 10.344 112.565 11.144C113.349 11.944 113.957 12.888 114.389 13.976C114.837 15.064 115.061 16.24 115.061 17.504C115.061 18.768 114.837 19.944 114.389 21.032C113.957 22.12 113.349 23.064 112.565 23.864C111.797 24.664 110.869 25.296 109.781 25.76C108.693 26.208 107.501 26.432 106.205 26.432ZM106.205 24.272C107.181 24.272 108.061 24.096 108.845 23.744C109.629 23.376 110.301 22.888 110.861 22.28C111.421 21.672 111.853 20.96 112.157 20.144C112.461 19.312 112.613 18.432 112.613 17.504C112.613 16.576 112.461 15.704 112.157 14.888C111.853 14.056 111.421 13.336 110.861 12.728C110.301 12.12 109.629 11.64 108.845 11.288C108.061 10.92 107.181 10.736 106.205 10.736C105.229 10.736 104.349 10.92 103.565 11.288C102.781 11.64 102.109 12.12 101.549 12.728C100.989 13.336 100.557 14.056 100.253 14.888C99.9493 15.704 99.7973 16.576 99.7973 17.504C99.7973 18.432 99.9493 19.312 100.253 20.144C100.557 20.96 100.989 21.672 101.549 22.28C102.109 22.888 102.781 23.376 103.565 23.744C104.349 24.096 105.229 24.272 106.205 24.272Z" fill="black"/>
<path d="M121.806 9.00799V19.424C121.806 19.952 121.878 20.504 122.022 21.08C122.166 21.64 122.406 22.16 122.742 22.64C123.078 23.12 123.518 23.512 124.062 23.816C124.606 24.12 125.278 24.272 126.078 24.272C126.878 24.272 127.55 24.12 128.094 23.816C128.638 23.512 129.078 23.12 129.414 22.64C129.75 22.16 129.99 21.64 130.134 21.08C130.278 20.504 130.35 19.952 130.35 19.424V9.00799H132.654V19.784C132.654 20.776 132.486 21.68 132.15 22.496C131.814 23.296 131.35 23.992 130.758 24.584C130.166 25.176 129.47 25.632 128.67 25.952C127.87 26.272 127.006 26.432 126.078 26.432C125.15 26.432 124.286 26.272 123.486 25.952C122.686 25.632 121.99 25.176 121.398 24.584C120.806 23.992 120.342 23.296 120.006 22.496C119.67 21.68 119.502 20.776 119.502 19.784V9.00799H121.806Z" fill="black"/>
<path d="M138.152 9.00799H144.128C145.216 9.00799 146.112 9.15999 146.816 9.46399C147.52 9.75199 148.072 10.128 148.472 10.592C148.888 11.04 149.176 11.552 149.336 12.128C149.496 12.688 149.576 13.232 149.576 13.76C149.576 14.304 149.48 14.832 149.288 15.344C149.096 15.84 148.816 16.296 148.448 16.712C148.096 17.112 147.656 17.456 147.128 17.744C146.616 18.016 146.04 18.184 145.4 18.248L150.224 26H147.344L143.024 18.512H140.456V26H138.152V9.00799ZM140.456 16.496H143.48C143.928 16.496 144.368 16.464 144.8 16.4C145.248 16.32 145.64 16.184 145.976 15.992C146.328 15.8 146.608 15.528 146.816 15.176C147.024 14.808 147.128 14.336 147.128 13.76C147.128 13.184 147.024 12.72 146.816 12.368C146.608 12 146.328 11.72 145.976 11.528C145.64 11.336 145.248 11.208 144.8 11.144C144.368 11.064 143.928 11.024 143.48 11.024H140.456V16.496Z" fill="black"/>
<path d="M154.768 22.448C155.184 23.072 155.712 23.536 156.352 23.84C157.008 24.128 157.68 24.272 158.368 24.272C158.752 24.272 159.144 24.216 159.544 24.104C159.944 23.976 160.304 23.792 160.624 23.552C160.96 23.312 161.232 23.016 161.44 22.664C161.648 22.312 161.752 21.904 161.752 21.44C161.752 20.784 161.544 20.288 161.128 19.952C160.712 19.6 160.192 19.312 159.568 19.088C158.96 18.848 158.288 18.624 157.552 18.416C156.832 18.192 156.16 17.888 155.536 17.504C154.928 17.12 154.416 16.608 154 15.968C153.584 15.312 153.376 14.432 153.376 13.328C153.376 12.832 153.48 12.304 153.688 11.744C153.912 11.184 154.256 10.672 154.72 10.208C155.184 9.74399 155.776 9.35999 156.496 9.05599C157.232 8.73599 158.112 8.57599 159.136 8.57599C160.064 8.57599 160.952 8.70399 161.8 8.95999C162.648 9.21599 163.392 9.73599 164.032 10.52L162.16 12.224C161.872 11.776 161.464 11.416 160.936 11.144C160.408 10.872 159.808 10.736 159.136 10.736C158.496 10.736 157.96 10.824 157.528 11C157.112 11.16 156.776 11.376 156.52 11.648C156.264 11.904 156.08 12.184 155.968 12.488C155.872 12.792 155.824 13.072 155.824 13.328C155.824 14.048 156.032 14.6 156.448 14.984C156.864 15.368 157.376 15.68 157.984 15.92C158.608 16.16 159.28 16.376 160 16.568C160.736 16.76 161.408 17.032 162.016 17.384C162.64 17.72 163.16 18.184 163.576 18.776C163.992 19.352 164.2 20.152 164.2 21.176C164.2 21.992 164.04 22.728 163.72 23.384C163.416 24.04 163 24.592 162.472 25.04C161.944 25.488 161.32 25.832 160.6 26.072C159.88 26.312 159.112 26.432 158.296 26.432C157.208 26.432 156.176 26.24 155.2 25.856C154.224 25.472 153.448 24.88 152.872 24.08L154.768 22.448Z" fill="black"/>
<path d="M186.584 26H176.792C175.592 26 174.456 25.784 173.384 25.352C172.312 24.92 171.376 24.32 170.576 23.552C169.776 22.784 169.144 21.872 168.68 20.816C168.216 19.744 167.984 18.576 167.984 17.312C167.984 16.064 168.208 14.912 168.656 13.856C169.104 12.784 169.72 11.856 170.504 11.072C171.304 10.288 172.232 9.67999 173.288 9.24799C174.36 8.79999 175.52 8.57599 176.768 8.57599C177.968 8.57599 179.088 8.79199 180.128 9.22399C181.184 9.65599 182.104 10.256 182.888 11.024C183.672 11.776 184.288 12.672 184.736 13.712C185.2 14.736 185.432 15.856 185.432 17.072C185.432 17.792 185.344 18.504 185.168 19.208C185.008 19.896 184.76 20.544 184.424 21.152C184.104 21.76 183.696 22.304 183.2 22.784C182.72 23.264 182.168 23.648 181.544 23.936V23.984H186.584V26ZM176.696 23.84C177.624 23.84 178.472 23.672 179.24 23.336C180.024 22.984 180.688 22.512 181.232 21.92C181.792 21.312 182.224 20.6 182.528 19.784C182.832 18.968 182.984 18.096 182.984 17.168C182.984 16.272 182.824 15.432 182.504 14.648C182.2 13.864 181.768 13.184 181.208 12.608C180.648 12.032 179.984 11.576 179.216 11.24C178.448 10.904 177.608 10.736 176.696 10.736C175.8 10.736 174.968 10.904 174.2 11.24C173.448 11.576 172.792 12.032 172.232 12.608C171.672 13.184 171.232 13.864 170.912 14.648C170.592 15.416 170.432 16.24 170.432 17.12C170.432 18.048 170.584 18.92 170.888 19.736C171.192 20.552 171.616 21.264 172.16 21.872C172.72 22.48 173.384 22.96 174.152 23.312C174.92 23.664 175.768 23.84 176.696 23.84Z" fill="black"/>
<path d="M192.441 9.00799V19.424C192.441 19.952 192.513 20.504 192.657 21.08C192.801 21.64 193.041 22.16 193.377 22.64C193.713 23.12 194.153 23.512 194.697 23.816C195.241 24.12 195.913 24.272 196.713 24.272C197.513 24.272 198.185 24.12 198.729 23.816C199.273 23.512 199.713 23.12 200.049 22.64C200.385 22.16 200.625 21.64 200.769 21.08C200.913 20.504 200.985 19.952 200.985 19.424V9.00799H203.289V19.784C203.289 20.776 203.121 21.68 202.785 22.496C202.449 23.296 201.985 23.992 201.393 24.584C200.801 25.176 200.105 25.632 199.305 25.952C198.505 26.272 197.641 26.432 196.713 26.432C195.785 26.432 194.921 26.272 194.121 25.952C193.321 25.632 192.625 25.176 192.033 24.584C191.441 23.992 190.977 23.296 190.641 22.496C190.305 21.68 190.137 20.776 190.137 19.784V9.00799H192.441Z" fill="black"/>
<path d="M214.115 9.00799H216.203L223.475 26H220.787L219.083 21.8H210.995L209.315 26H206.627L214.115 9.00799ZM218.243 19.784L215.075 11.984H215.027L211.811 19.784H218.243Z" fill="black"/>
<path d="M227.126 9.00799H233.102C234.19 9.00799 235.086 9.15999 235.79 9.46399C236.494 9.75199 237.046 10.128 237.446 10.592C237.862 11.04 238.15 11.552 238.31 12.128C238.47 12.688 238.55 13.232 238.55 13.76C238.55 14.304 238.454 14.832 238.262 15.344C238.07 15.84 237.79 16.296 237.422 16.712C237.07 17.112 236.63 17.456 236.102 17.744C235.59 18.016 235.014 18.184 234.374 18.248L239.198 26H236.318L231.998 18.512H229.43V26H227.126V9.00799ZM229.43 16.496H232.454C232.902 16.496 233.342 16.464 233.774 16.4C234.222 16.32 234.614 16.184 234.95 15.992C235.302 15.8 235.582 15.528 235.79 15.176C235.998 14.808 236.102 14.336 236.102 13.76C236.102 13.184 235.998 12.72 235.79 12.368C235.582 12 235.302 11.72 234.95 11.528C234.614 11.336 234.222 11.208 233.774 11.144C233.342 11.064 232.902 11.024 232.454 11.024H229.43V16.496Z" fill="black"/>
<path d="M243.238 9.00799H254.206V11.168H245.542V16.232H253.606V18.392H245.542V23.84H254.638V26H243.238V9.00799Z" fill="black"/>
<path d="M265.141 9.00799H267.805L272.797 22.832H272.845L278.029 9.00799H280.549L273.853 26H271.693L265.141 9.00799Z" fill="black"/>
<path d="M298.499 16.496V24.872C298.083 25.128 297.611 25.352 297.083 25.544C296.555 25.736 296.002 25.896 295.426 26.024C294.866 26.168 294.291 26.272 293.699 26.336C293.123 26.4 292.578 26.432 292.066 26.432C290.626 26.432 289.338 26.192 288.202 25.712C287.082 25.232 286.13 24.584 285.346 23.768C284.578 22.952 283.986 22.008 283.57 20.936C283.17 19.848 282.971 18.704 282.971 17.504C282.971 16.24 283.186 15.064 283.618 13.976C284.066 12.888 284.675 11.944 285.443 11.144C286.227 10.344 287.163 9.71999 288.251 9.27199C289.339 8.80799 290.531 8.57599 291.827 8.57599C293.395 8.57599 294.675 8.77599 295.667 9.17599C296.659 9.55999 297.491 10.096 298.163 10.784L296.531 12.536C295.827 11.864 295.083 11.4 294.299 11.144C293.515 10.872 292.691 10.736 291.827 10.736C290.851 10.736 289.971 10.92 289.187 11.288C288.403 11.64 287.731 12.12 287.171 12.728C286.611 13.336 286.178 14.056 285.874 14.888C285.57 15.704 285.419 16.576 285.419 17.504C285.419 18.464 285.587 19.36 285.923 20.192C286.259 21.008 286.722 21.72 287.314 22.328C287.906 22.936 288.602 23.416 289.402 23.768C290.202 24.104 291.075 24.272 292.019 24.272C292.835 24.272 293.603 24.2 294.323 24.056C295.059 23.896 295.683 23.672 296.195 23.384V18.656H292.426V16.496H298.499Z" fill="black"/>
<path d="M315.978 12.68C315.498 12.056 314.89 11.576 314.154 11.24C313.418 10.904 312.658 10.736 311.874 10.736C310.914 10.736 310.042 10.92 309.258 11.288C308.49 11.64 307.826 12.128 307.266 12.752C306.722 13.376 306.298 14.112 305.994 14.96C305.69 15.792 305.538 16.688 305.538 17.648C305.538 18.544 305.682 19.392 305.97 20.192C306.258 20.992 306.674 21.696 307.218 22.304C307.762 22.912 308.426 23.392 309.21 23.744C309.994 24.096 310.882 24.272 311.874 24.272C312.85 24.272 313.706 24.072 314.442 23.672C315.178 23.272 315.802 22.712 316.314 21.992L318.258 23.456C318.13 23.632 317.906 23.888 317.586 24.224C317.266 24.544 316.842 24.872 316.314 25.208C315.786 25.528 315.146 25.808 314.394 26.048C313.658 26.304 312.802 26.432 311.826 26.432C310.482 26.432 309.266 26.176 308.178 25.664C307.106 25.152 306.186 24.48 305.418 23.648C304.666 22.816 304.09 21.88 303.69 20.84C303.29 19.784 303.09 18.72 303.09 17.648C303.09 16.336 303.306 15.128 303.738 14.024C304.17 12.904 304.77 11.944 305.538 11.144C306.322 10.328 307.258 9.69599 308.346 9.24799C309.434 8.79999 310.634 8.57599 311.946 8.57599C313.066 8.57599 314.162 8.79199 315.234 9.22399C316.322 9.65599 317.21 10.32 317.898 11.216L315.978 12.68Z" fill="black"/>
<path d="M80.856 43.008H83.52L88.512 56.832H88.56L93.744 43.008H96.264L89.568 60H87.408L80.856 43.008Z" fill="black"/>
<path d="M99.7412 43.008H110.709V45.168H102.045V50.232H110.109V52.392H102.045V57.84H111.141V60H99.7412V43.008Z" fill="black"/>
<path d="M115.853 43.008H118.877L128.237 56.976H128.285V43.008H130.589V60H127.661L118.205 46.032H118.157V60H115.853V43.008Z" fill="black"/>
<path d="M138.387 43.008V53.424C138.387 53.952 138.459 54.504 138.603 55.08C138.747 55.64 138.987 56.16 139.323 56.64C139.659 57.12 140.099 57.512 140.643 57.816C141.187 58.12 141.859 58.272 142.659 58.272C143.459 58.272 144.131 58.12 144.675 57.816C145.219 57.512 145.659 57.12 145.995 56.64C146.331 56.16 146.571 55.64 146.715 55.08C146.859 54.504 146.931 53.952 146.931 53.424V43.008H149.235V53.784C149.235 54.776 149.067 55.68 148.731 56.496C148.395 57.296 147.931 57.992 147.339 58.584C146.747 59.176 146.051 59.632 145.251 59.952C144.451 60.272 143.587 60.432 142.659 60.432C141.731 60.432 140.867 60.272 140.067 59.952C139.267 59.632 138.571 59.176 137.979 58.584C137.387 57.992 136.923 57.296 136.587 56.496C136.251 55.68 136.083 54.776 136.083 53.784V43.008H138.387Z" fill="black"/>
<path d="M154.733 43.008H165.701V45.168H157.037V50.232H165.101V52.392H157.037V57.84H166.133V60H154.733V43.008Z" fill="black"/>
<path d="M178.797 43.008H182.229L187.629 55.872H187.725L193.077 43.008H196.509V60H194.205V46.032H194.157L188.421 60H186.885L181.149 46.032H181.101V60H178.797V43.008Z" fill="black"/>
<path d="M207.483 43.008H209.571L216.843 60H214.155L212.451 55.8H204.363L202.683 60H199.995L207.483 43.008ZM211.611 53.784L208.443 45.984H208.395L205.179 53.784H211.611Z" fill="black"/>
<path d="M220.493 43.008H223.517L232.877 56.976H232.925V43.008H235.229V60H232.301L222.845 46.032H222.797V60H220.493V43.008Z" fill="black"/>
<path d="M246.363 43.008H248.451L255.723 60H253.035L251.331 55.8H243.243L241.563 60H238.875L246.363 43.008ZM250.491 53.784L247.323 45.984H247.275L244.059 53.784H250.491Z" fill="black"/>
<path d="M273.845 50.496V58.872C273.429 59.128 272.957 59.352 272.429 59.544C271.901 59.736 271.349 59.896 270.773 60.024C270.213 60.168 269.637 60.272 269.045 60.336C268.469 60.4 267.925 60.432 267.413 60.432C265.973 60.432 264.685 60.192 263.549 59.712C262.429 59.232 261.477 58.584 260.693 57.768C259.925 56.952 259.333 56.008 258.917 54.936C258.517 53.848 258.317 52.704 258.317 51.504C258.317 50.24 258.533 49.064 258.965 47.976C259.413 46.888 260.021 45.944 260.789 45.144C261.573 44.344 262.509 43.72 263.597 43.272C264.685 42.808 265.877 42.576 267.173 42.576C268.741 42.576 270.021 42.776 271.013 43.176C272.005 43.56 272.837 44.096 273.509 44.784L271.877 46.536C271.173 45.864 270.429 45.4 269.645 45.144C268.861 44.872 268.037 44.736 267.173 44.736C266.197 44.736 265.317 44.92 264.533 45.288C263.749 45.64 263.077 46.12 262.517 46.728C261.957 47.336 261.525 48.056 261.221 48.888C260.917 49.704 260.765 50.576 260.765 51.504C260.765 52.464 260.933 53.36 261.269 54.192C261.605 55.008 262.069 55.72 262.661 56.328C263.253 56.936 263.949 57.416 264.749 57.768C265.549 58.104 266.421 58.272 267.365 58.272C268.181 58.272 268.949 58.2 269.669 58.056C270.405 57.896 271.029 57.672 271.541 57.384V52.656H267.773V50.496H273.845Z" fill="black"/>
<path d="M279.493 43.008H290.461V45.168H281.797V50.232H289.861V52.392H281.797V57.84H290.893V60H279.493V43.008Z" fill="black"/>
<path d="M295.437 43.008H298.869L304.269 55.872H304.365L309.717 43.008H313.149V60H310.845V46.032H310.797L305.061 60H303.525L297.789 46.032H297.741V60H295.437V43.008Z" fill="black"/>
<path d="M318.795 43.008H329.763V45.168H321.099V50.232H329.163V52.392H321.099V57.84H330.195V60H318.795V43.008Z" fill="black"/>
<path d="M334.907 43.008H337.93L347.291 56.976H347.339V43.008H349.643V60H346.714L337.258 46.032H337.21V60H334.907V43.008Z" fill="black"/>
<path d="M359 45.168H353.528V43.008H366.776V45.168H361.304V60H359V45.168Z" fill="black"/>
</svg>
