<svg width="366" height="64" viewBox="0 0 366 64" fill="none" xmlns="http://www.w3.org/2000/svg">
<path fill-rule="evenodd" clip-rule="evenodd" d="M18.2479 0H29.6198V29.3554H18.2479H11.3719H0V0H11.3719H18.2479ZM11.3719 1.05787H1.05786V28.2975H11.3719V14.81H3.43803L3.43803 7.93392L11.3719 7.93392V1.05787ZM18.2479 28.2975V14.81H25.6529V7.93392L18.2479 7.93392V1.05787H28.562V28.2975H18.2479Z" fill="#4153AF" fill-opacity="0.6"/>
<path fill-rule="evenodd" clip-rule="evenodd" d="M35.7024 34.6447H65.3223V42.7908C65.7966 43.0651 66.1157 43.578 66.1157 44.1653C66.1157 44.7526 65.7966 45.2654 65.3223 45.5398V64H35.7024V45.8042C35.2282 45.5299 34.9091 45.0171 34.9091 44.4297C34.9091 43.8424 35.2282 43.3296 35.7024 43.0553V34.6447ZM36.7603 45.9946V62.9422H64.2644V45.7301C64.2601 45.7294 64.2558 45.7287 64.2515 45.7279C62.3184 49.4242 60.6798 55.4225 60.033 58.3141C52.5223 61.4877 44.2975 59.6364 41.1239 58.3141C41.1239 57.1439 39.3748 52.3374 38.022 48.6199L38.022 48.6198L38.022 48.6198C37.6532 47.6064 37.3139 46.6739 37.0475 45.918C36.9555 45.9521 36.8594 45.9779 36.7603 45.9946ZM64.2644 42.6005C63.514 42.7264 62.9421 43.3791 62.9421 44.1653C62.9421 44.617 63.1309 45.0247 63.4338 45.3136C62.3082 46.1953 61.0444 47.6066 58.314 51.3058C58.1496 49.3655 57.9361 45.8008 58.0579 43.5886C58.1822 43.6198 58.3123 43.6364 58.4462 43.6364C59.3226 43.6364 60.033 42.926 60.033 42.0497C60.033 41.1733 59.3226 40.4629 58.4462 40.4629C57.5699 40.4629 56.8595 41.1733 56.8595 42.0497C56.8595 42.5369 57.0791 42.9728 57.4247 43.2639C57.0355 44.0414 56.5912 45.0608 56.1437 46.0874L56.1437 46.0875L56.1437 46.0875C55.313 47.9934 54.4713 49.9244 53.9504 50.3802C53.1437 49.8424 51.6471 45.0894 50.6994 41.72C51.3558 41.5255 51.8347 40.9178 51.8347 40.1984C51.8347 39.322 51.1242 38.6116 50.2479 38.6116C49.3715 38.6116 48.6611 39.322 48.6611 40.1984C48.6611 40.9829 49.2305 41.6345 49.9786 41.7624C49.4111 45.0421 48.3617 49.626 47.2066 50.248C46.7704 49.4628 44.8653 45.626 43.4938 42.8463C43.7468 42.5651 43.9008 42.1931 43.9008 41.7851C43.9008 40.9088 43.1904 40.1983 42.314 40.1983C41.4377 40.1983 40.7272 40.9088 40.7272 41.7851C40.7272 42.6615 41.4377 43.3719 42.314 43.3719C42.451 43.3719 42.5839 43.3545 42.7107 43.3219V51.3058L37.7089 45.4527C37.9421 45.1765 38.0826 44.8195 38.0826 44.4297C38.0826 43.6435 37.5108 42.9908 36.7603 42.8649V35.7025H64.2644V42.6005Z" fill="#4153AF" fill-opacity="0.6"/>
<path fill-rule="evenodd" clip-rule="evenodd" d="M64.5289 0H34.9091V29.3554H64.5289V0ZM63.4711 1.05787H62.0165C61.5757 1.32233 60.5884 2.6182 60.1652 5.68597C59.6363 9.52068 55.5371 16.7934 52.7603 18.9091V22.876C54.2148 23.4491 57.2033 25.3356 57.5206 28.2975L63.4711 28.2975V1.05787ZM35.9669 1.05787H37.0248C37.6418 1.32233 38.3471 2.51241 38.876 5.68597C39.3803 8.71199 43.7245 15.7796 46.1487 18.9091V22.876C43.1867 23.5108 41.741 26.7548 41.3884 28.2975L35.9669 28.2975V1.05787ZM53.8181 14.0165L56.1983 5.81816C56.8595 3.96689 59.0593 3.83467 58.0495 6.61155C56.9917 9.52061 55.1404 12.9587 53.8181 14.0165Z" fill="#4153AF" fill-opacity="0.6"/>
<path fill-rule="evenodd" clip-rule="evenodd" d="M1.05786 60.9055C1.43143 59.4622 2.39225 57.5818 4.49588 55.6694C1.63968 52.4959 1.71902 49.4986 2.11571 48.3967C3.04133 47.0744 5.39505 44.2182 7.40497 43.3719C9.91737 42.3141 14.9422 36.8926 14.8099 35.967C14.6777 35.0413 16.2645 39.9339 12.4298 44.1653C9.36199 47.5504 9.03582 49.0138 9.25621 49.3223C11.5131 48.3375 16.4442 44.2812 19.2481 35.7024H1.05786V60.9055ZM1.05786 62.5841V62.9421H28.562V44.7437C27.5485 48.8187 25.3378 54.7177 19.967 57.9174C19.9248 57.9425 19.8823 57.9679 19.8393 57.9936C18.1312 59.0143 15.7572 60.4329 9.25621 59.5041C6.03675 59.0442 1.84959 61.0266 1.05786 62.5841ZM28.562 43.4853V35.7024H25.7337C22.97 39.9766 19.2617 46.5004 19.1736 49.8512C22.6181 49.8512 26.6348 45.8837 28.562 43.4853ZM26.4285 34.6446H29.6198V64H0V34.6446H19.576C19.6649 34.3414 19.7513 34.0328 19.8347 33.719L20.1907 34.6446H20.8133L21.5537 32.7934L22.4793 34.6446H22.4794L23.5372 32.7934C23.643 32.7934 23.7576 34.0275 23.8017 34.6446H23.8017L25.5207 32.9256L25.1769 34.6446H25.5087L27.2397 33.4546C26.9908 33.8113 26.7182 34.2106 26.4285 34.6446Z" fill="#4153AF" fill-opacity="0.6"/>
<path d="M82.184 8.00799H92.864V10.168H84.488V15.496H92.288V17.656H84.488V25H82.184V8.00799Z" fill="black"/>
<path d="M105.205 25.432C103.909 25.432 102.717 25.208 101.629 24.76C100.541 24.296 99.6053 23.664 98.8213 22.864C98.0533 22.064 97.4453 21.12 96.9973 20.032C96.5653 18.944 96.3493 17.768 96.3493 16.504C96.3493 15.24 96.5653 14.064 96.9973 12.976C97.4453 11.888 98.0533 10.944 98.8213 10.144C99.6053 9.34399 100.541 8.71999 101.629 8.27199C102.717 7.80799 103.909 7.57599 105.205 7.57599C106.501 7.57599 107.693 7.80799 108.781 8.27199C109.869 8.71999 110.797 9.34399 111.565 10.144C112.349 10.944 112.957 11.888 113.389 12.976C113.837 14.064 114.061 15.24 114.061 16.504C114.061 17.768 113.837 18.944 113.389 20.032C112.957 21.12 112.349 22.064 111.565 22.864C110.797 23.664 109.869 24.296 108.781 24.76C107.693 25.208 106.501 25.432 105.205 25.432ZM105.205 23.272C106.181 23.272 107.061 23.096 107.845 22.744C108.629 22.376 109.301 21.888 109.861 21.28C110.421 20.672 110.853 19.96 111.157 19.144C111.461 18.312 111.613 17.432 111.613 16.504C111.613 15.576 111.461 14.704 111.157 13.888C110.853 13.056 110.421 12.336 109.861 11.728C109.301 11.12 108.629 10.64 107.845 10.288C107.061 9.91999 106.181 9.73599 105.205 9.73599C104.229 9.73599 103.349 9.91999 102.565 10.288C101.781 10.64 101.109 11.12 100.549 11.728C99.9893 12.336 99.5573 13.056 99.2533 13.888C98.9493 14.704 98.7973 15.576 98.7973 16.504C98.7973 17.432 98.9493 18.312 99.2533 19.144C99.5573 19.96 99.9893 20.672 100.549 21.28C101.109 21.888 101.781 22.376 102.565 22.744C103.349 23.096 104.229 23.272 105.205 23.272Z" fill="black"/>
<path d="M120.806 8.00799V18.424C120.806 18.952 120.878 19.504 121.022 20.08C121.166 20.64 121.406 21.16 121.742 21.64C122.078 22.12 122.518 22.512 123.062 22.816C123.606 23.12 124.278 23.272 125.078 23.272C125.878 23.272 126.55 23.12 127.094 22.816C127.638 22.512 128.078 22.12 128.414 21.64C128.75 21.16 128.99 20.64 129.134 20.08C129.278 19.504 129.35 18.952 129.35 18.424V8.00799H131.654V18.784C131.654 19.776 131.486 20.68 131.15 21.496C130.814 22.296 130.35 22.992 129.758 23.584C129.166 24.176 128.47 24.632 127.67 24.952C126.87 25.272 126.006 25.432 125.078 25.432C124.15 25.432 123.286 25.272 122.486 24.952C121.686 24.632 120.99 24.176 120.398 23.584C119.806 22.992 119.342 22.296 119.006 21.496C118.67 20.68 118.502 19.776 118.502 18.784V8.00799H120.806Z" fill="black"/>
<path d="M137.152 8.00799H143.128C144.216 8.00799 145.112 8.15999 145.816 8.46399C146.52 8.75199 147.072 9.12799 147.472 9.59199C147.888 10.04 148.176 10.552 148.336 11.128C148.496 11.688 148.576 12.232 148.576 12.76C148.576 13.304 148.48 13.832 148.288 14.344C148.096 14.84 147.816 15.296 147.448 15.712C147.096 16.112 146.656 16.456 146.128 16.744C145.616 17.016 145.04 17.184 144.4 17.248L149.224 25H146.344L142.024 17.512H139.456V25H137.152V8.00799ZM139.456 15.496H142.48C142.928 15.496 143.368 15.464 143.8 15.4C144.248 15.32 144.64 15.184 144.976 14.992C145.328 14.8 145.608 14.528 145.816 14.176C146.024 13.808 146.128 13.336 146.128 12.76C146.128 12.184 146.024 11.72 145.816 11.368C145.608 11 145.328 10.72 144.976 10.528C144.64 10.336 144.248 10.208 143.8 10.144C143.368 10.064 142.928 10.024 142.48 10.024H139.456V15.496Z" fill="black"/>
<path d="M153.768 21.448C154.184 22.072 154.712 22.536 155.352 22.84C156.008 23.128 156.68 23.272 157.368 23.272C157.752 23.272 158.144 23.216 158.544 23.104C158.944 22.976 159.304 22.792 159.624 22.552C159.96 22.312 160.232 22.016 160.44 21.664C160.648 21.312 160.752 20.904 160.752 20.44C160.752 19.784 160.544 19.288 160.128 18.952C159.712 18.6 159.192 18.312 158.568 18.088C157.96 17.848 157.288 17.624 156.552 17.416C155.832 17.192 155.16 16.888 154.536 16.504C153.928 16.12 153.416 15.608 153 14.968C152.584 14.312 152.376 13.432 152.376 12.328C152.376 11.832 152.48 11.304 152.688 10.744C152.912 10.184 153.256 9.67199 153.72 9.20799C154.184 8.74399 154.776 8.35999 155.496 8.05599C156.232 7.73599 157.112 7.57599 158.136 7.57599C159.064 7.57599 159.952 7.70399 160.8 7.95999C161.648 8.21599 162.392 8.73599 163.032 9.51999L161.16 11.224C160.872 10.776 160.464 10.416 159.936 10.144C159.408 9.87199 158.808 9.73599 158.136 9.73599C157.496 9.73599 156.96 9.82399 156.528 9.99999C156.112 10.16 155.776 10.376 155.52 10.648C155.264 10.904 155.08 11.184 154.968 11.488C154.872 11.792 154.824 12.072 154.824 12.328C154.824 13.048 155.032 13.6 155.448 13.984C155.864 14.368 156.376 14.68 156.984 14.92C157.608 15.16 158.28 15.376 159 15.568C159.736 15.76 160.408 16.032 161.016 16.384C161.64 16.72 162.16 17.184 162.576 17.776C162.992 18.352 163.2 19.152 163.2 20.176C163.2 20.992 163.04 21.728 162.72 22.384C162.416 23.04 162 23.592 161.472 24.04C160.944 24.488 160.32 24.832 159.6 25.072C158.88 25.312 158.112 25.432 157.296 25.432C156.208 25.432 155.176 25.24 154.2 24.856C153.224 24.472 152.448 23.88 151.872 23.08L153.768 21.448Z" fill="black"/>
<path d="M185.584 25H175.792C174.592 25 173.456 24.784 172.384 24.352C171.312 23.92 170.376 23.32 169.576 22.552C168.776 21.784 168.144 20.872 167.68 19.816C167.216 18.744 166.984 17.576 166.984 16.312C166.984 15.064 167.208 13.912 167.656 12.856C168.104 11.784 168.72 10.856 169.504 10.072C170.304 9.28799 171.232 8.67999 172.288 8.24799C173.36 7.79999 174.52 7.57599 175.768 7.57599C176.968 7.57599 178.088 7.79199 179.128 8.22399C180.184 8.65599 181.104 9.25599 181.888 10.024C182.672 10.776 183.288 11.672 183.736 12.712C184.2 13.736 184.432 14.856 184.432 16.072C184.432 16.792 184.344 17.504 184.168 18.208C184.008 18.896 183.76 19.544 183.424 20.152C183.104 20.76 182.696 21.304 182.2 21.784C181.72 22.264 181.168 22.648 180.544 22.936V22.984H185.584V25ZM175.696 22.84C176.624 22.84 177.472 22.672 178.24 22.336C179.024 21.984 179.688 21.512 180.232 20.92C180.792 20.312 181.224 19.6 181.528 18.784C181.832 17.968 181.984 17.096 181.984 16.168C181.984 15.272 181.824 14.432 181.504 13.648C181.2 12.864 180.768 12.184 180.208 11.608C179.648 11.032 178.984 10.576 178.216 10.24C177.448 9.90399 176.608 9.73599 175.696 9.73599C174.8 9.73599 173.968 9.90399 173.2 10.24C172.448 10.576 171.792 11.032 171.232 11.608C170.672 12.184 170.232 12.864 169.912 13.648C169.592 14.416 169.432 15.24 169.432 16.12C169.432 17.048 169.584 17.92 169.888 18.736C170.192 19.552 170.616 20.264 171.16 20.872C171.72 21.48 172.384 21.96 173.152 22.312C173.92 22.664 174.768 22.84 175.696 22.84Z" fill="black"/>
<path d="M191.441 8.00799V18.424C191.441 18.952 191.513 19.504 191.657 20.08C191.801 20.64 192.041 21.16 192.377 21.64C192.713 22.12 193.153 22.512 193.697 22.816C194.241 23.12 194.913 23.272 195.713 23.272C196.513 23.272 197.185 23.12 197.729 22.816C198.273 22.512 198.713 22.12 199.049 21.64C199.385 21.16 199.625 20.64 199.769 20.08C199.913 19.504 199.985 18.952 199.985 18.424V8.00799H202.289V18.784C202.289 19.776 202.121 20.68 201.785 21.496C201.449 22.296 200.985 22.992 200.393 23.584C199.801 24.176 199.105 24.632 198.305 24.952C197.505 25.272 196.641 25.432 195.713 25.432C194.785 25.432 193.921 25.272 193.121 24.952C192.321 24.632 191.625 24.176 191.033 23.584C190.441 22.992 189.977 22.296 189.641 21.496C189.305 20.68 189.137 19.776 189.137 18.784V8.00799H191.441Z" fill="black"/>
<path d="M213.115 8.00799H215.203L222.475 25H219.787L218.083 20.8H209.995L208.315 25H205.627L213.115 8.00799ZM217.243 18.784L214.075 10.984H214.027L210.811 18.784H217.243Z" fill="black"/>
<path d="M226.126 8.00799H232.102C233.19 8.00799 234.086 8.15999 234.79 8.46399C235.494 8.75199 236.046 9.12799 236.446 9.59199C236.862 10.04 237.15 10.552 237.31 11.128C237.47 11.688 237.55 12.232 237.55 12.76C237.55 13.304 237.454 13.832 237.262 14.344C237.07 14.84 236.79 15.296 236.422 15.712C236.07 16.112 235.63 16.456 235.102 16.744C234.59 17.016 234.014 17.184 233.374 17.248L238.198 25H235.318L230.998 17.512H228.43V25H226.126V8.00799ZM228.43 15.496H231.454C231.902 15.496 232.342 15.464 232.774 15.4C233.222 15.32 233.614 15.184 233.95 14.992C234.302 14.8 234.582 14.528 234.79 14.176C234.998 13.808 235.102 13.336 235.102 12.76C235.102 12.184 234.998 11.72 234.79 11.368C234.582 11 234.302 10.72 233.95 10.528C233.614 10.336 233.222 10.208 232.774 10.144C232.342 10.064 231.902 10.024 231.454 10.024H228.43V15.496Z" fill="black"/>
<path d="M242.238 8.00799H253.206V10.168H244.542V15.232H252.606V17.392H244.542V22.84H253.638V25H242.238V8.00799Z" fill="black"/>
<path d="M264.141 8.00799H266.805L271.797 21.832H271.845L277.029 8.00799H279.549L272.853 25H270.693L264.141 8.00799Z" fill="black"/>
<path d="M297.499 15.496V23.872C297.083 24.128 296.611 24.352 296.083 24.544C295.555 24.736 295.002 24.896 294.426 25.024C293.866 25.168 293.291 25.272 292.699 25.336C292.123 25.4 291.578 25.432 291.066 25.432C289.626 25.432 288.338 25.192 287.202 24.712C286.082 24.232 285.13 23.584 284.346 22.768C283.578 21.952 282.986 21.008 282.57 19.936C282.17 18.848 281.971 17.704 281.971 16.504C281.971 15.24 282.186 14.064 282.618 12.976C283.066 11.888 283.675 10.944 284.443 10.144C285.227 9.34399 286.163 8.71999 287.251 8.27199C288.339 7.80799 289.531 7.57599 290.827 7.57599C292.395 7.57599 293.675 7.77599 294.667 8.17599C295.659 8.55999 296.491 9.09599 297.163 9.78399L295.531 11.536C294.827 10.864 294.083 10.4 293.299 10.144C292.515 9.87199 291.691 9.73599 290.827 9.73599C289.851 9.73599 288.971 9.91999 288.187 10.288C287.403 10.64 286.731 11.12 286.171 11.728C285.611 12.336 285.178 13.056 284.874 13.888C284.57 14.704 284.419 15.576 284.419 16.504C284.419 17.464 284.587 18.36 284.923 19.192C285.259 20.008 285.722 20.72 286.314 21.328C286.906 21.936 287.602 22.416 288.402 22.768C289.202 23.104 290.075 23.272 291.019 23.272C291.835 23.272 292.603 23.2 293.323 23.056C294.059 22.896 294.683 22.672 295.195 22.384V17.656H291.426V15.496H297.499Z" fill="black"/>
<path d="M314.978 11.68C314.498 11.056 313.89 10.576 313.154 10.24C312.418 9.90399 311.658 9.73599 310.874 9.73599C309.914 9.73599 309.042 9.91999 308.258 10.288C307.49 10.64 306.826 11.128 306.266 11.752C305.722 12.376 305.298 13.112 304.994 13.96C304.69 14.792 304.538 15.688 304.538 16.648C304.538 17.544 304.682 18.392 304.97 19.192C305.258 19.992 305.674 20.696 306.218 21.304C306.762 21.912 307.426 22.392 308.21 22.744C308.994 23.096 309.882 23.272 310.874 23.272C311.85 23.272 312.706 23.072 313.442 22.672C314.178 22.272 314.802 21.712 315.314 20.992L317.258 22.456C317.13 22.632 316.906 22.888 316.586 23.224C316.266 23.544 315.842 23.872 315.314 24.208C314.786 24.528 314.146 24.808 313.394 25.048C312.658 25.304 311.802 25.432 310.826 25.432C309.482 25.432 308.266 25.176 307.178 24.664C306.106 24.152 305.186 23.48 304.418 22.648C303.666 21.816 303.09 20.88 302.69 19.84C302.29 18.784 302.09 17.72 302.09 16.648C302.09 15.336 302.306 14.128 302.738 13.024C303.17 11.904 303.77 10.944 304.538 10.144C305.322 9.32799 306.258 8.69599 307.346 8.24799C308.434 7.79999 309.634 7.57599 310.946 7.57599C312.066 7.57599 313.162 7.79199 314.234 8.22399C315.322 8.65599 316.21 9.31999 316.898 10.216L314.978 11.68Z" fill="black"/>
<path d="M79.856 42.008H82.52L87.512 55.832H87.56L92.744 42.008H95.264L88.568 59H86.408L79.856 42.008Z" fill="black"/>
<path d="M98.7412 42.008H109.709V44.168H101.045V49.232H109.109V51.392H101.045V56.84H110.141V59H98.7412V42.008Z" fill="black"/>
<path d="M114.853 42.008H117.877L127.237 55.976H127.285V42.008H129.589V59H126.661L117.205 45.032H117.157V59H114.853V42.008Z" fill="black"/>
<path d="M137.387 42.008V52.424C137.387 52.952 137.459 53.504 137.603 54.08C137.747 54.64 137.987 55.16 138.323 55.64C138.659 56.12 139.099 56.512 139.643 56.816C140.187 57.12 140.859 57.272 141.659 57.272C142.459 57.272 143.131 57.12 143.675 56.816C144.219 56.512 144.659 56.12 144.995 55.64C145.331 55.16 145.571 54.64 145.715 54.08C145.859 53.504 145.931 52.952 145.931 52.424V42.008H148.235V52.784C148.235 53.776 148.067 54.68 147.731 55.496C147.395 56.296 146.931 56.992 146.339 57.584C145.747 58.176 145.051 58.632 144.251 58.952C143.451 59.272 142.587 59.432 141.659 59.432C140.731 59.432 139.867 59.272 139.067 58.952C138.267 58.632 137.571 58.176 136.979 57.584C136.387 56.992 135.923 56.296 135.587 55.496C135.251 54.68 135.083 53.776 135.083 52.784V42.008H137.387Z" fill="black"/>
<path d="M153.733 42.008H164.701V44.168H156.037V49.232H164.101V51.392H156.037V56.84H165.133V59H153.733V42.008Z" fill="black"/>
<path d="M177.797 42.008H181.229L186.629 54.872H186.725L192.077 42.008H195.509V59H193.205V45.032H193.157L187.421 59H185.885L180.149 45.032H180.101V59H177.797V42.008Z" fill="black"/>
<path d="M206.483 42.008H208.571L215.843 59H213.155L211.451 54.8H203.363L201.683 59H198.995L206.483 42.008ZM210.611 52.784L207.443 44.984H207.395L204.179 52.784H210.611Z" fill="black"/>
<path d="M219.493 42.008H222.517L231.877 55.976H231.925V42.008H234.229V59H231.301L221.845 45.032H221.797V59H219.493V42.008Z" fill="black"/>
<path d="M245.363 42.008H247.451L254.723 59H252.035L250.331 54.8H242.243L240.563 59H237.875L245.363 42.008ZM249.491 52.784L246.323 44.984H246.275L243.059 52.784H249.491Z" fill="black"/>
<path d="M272.845 49.496V57.872C272.429 58.128 271.957 58.352 271.429 58.544C270.901 58.736 270.349 58.896 269.773 59.024C269.213 59.168 268.637 59.272 268.045 59.336C267.469 59.4 266.925 59.432 266.413 59.432C264.973 59.432 263.685 59.192 262.549 58.712C261.429 58.232 260.477 57.584 259.693 56.768C258.925 55.952 258.333 55.008 257.917 53.936C257.517 52.848 257.317 51.704 257.317 50.504C257.317 49.24 257.533 48.064 257.965 46.976C258.413 45.888 259.021 44.944 259.789 44.144C260.573 43.344 261.509 42.72 262.597 42.272C263.685 41.808 264.877 41.576 266.173 41.576C267.741 41.576 269.021 41.776 270.013 42.176C271.005 42.56 271.837 43.096 272.509 43.784L270.877 45.536C270.173 44.864 269.429 44.4 268.645 44.144C267.861 43.872 267.037 43.736 266.173 43.736C265.197 43.736 264.317 43.92 263.533 44.288C262.749 44.64 262.077 45.12 261.517 45.728C260.957 46.336 260.525 47.056 260.221 47.888C259.917 48.704 259.765 49.576 259.765 50.504C259.765 51.464 259.933 52.36 260.269 53.192C260.605 54.008 261.069 54.72 261.661 55.328C262.253 55.936 262.949 56.416 263.749 56.768C264.549 57.104 265.421 57.272 266.365 57.272C267.181 57.272 267.949 57.2 268.669 57.056C269.405 56.896 270.029 56.672 270.541 56.384V51.656H266.773V49.496H272.845Z" fill="black"/>
<path d="M278.493 42.008H289.461V44.168H280.797V49.232H288.861V51.392H280.797V56.84H289.893V59H278.493V42.008Z" fill="black"/>
<path d="M294.437 42.008H297.869L303.269 54.872H303.365L308.717 42.008H312.149V59H309.845V45.032H309.797L304.061 59H302.525L296.789 45.032H296.741V59H294.437V42.008Z" fill="black"/>
<path d="M317.795 42.008H328.763V44.168H320.099V49.232H328.163V51.392H320.099V56.84H329.195V59H317.795V42.008Z" fill="black"/>
<path d="M333.907 42.008H336.93L346.291 55.976H346.339V42.008H348.643V59H345.714L336.258 45.032H336.21V59H333.907V42.008Z" fill="black"/>
<path d="M358 44.168H352.528V42.008H365.776V44.168H360.304V59H358V44.168Z" fill="black"/>
</svg>
